<svg preserveAspectRatio="none" width="100%" height="100%" overflow="visible" style="display: block;" viewBox="0 0 220 220" fill="none" xmlns="http://www.w3.org/2000/svg">
<path id="Star 4" d="M96.0787 6.3733C103.243 -2.12444 116.757 -2.12443 123.921 6.37332L131.72 15.6224C136.171 20.9022 143.451 23.1698 150.289 21.407L162.268 18.319C173.274 15.4818 184.207 23.097 184.793 34.0095L185.432 45.8867C185.796 52.6668 190.295 58.6037 196.908 61.0312L208.493 65.2837C219.136 69.1908 223.312 81.5125 217.097 90.6715L210.332 100.64C206.47 106.331 206.47 113.669 210.332 119.36L217.097 129.329C223.312 138.488 219.136 150.809 208.493 154.716L196.908 158.969C190.295 161.396 185.796 167.333 185.432 174.113L184.793 185.991C184.207 196.903 173.274 204.518 162.268 201.681L150.289 198.593C143.451 196.83 136.171 199.098 131.72 204.378L123.921 213.627C116.757 222.124 103.243 222.124 96.0787 213.627L88.2805 204.378C83.8289 199.098 76.5495 196.83 69.7111 198.593L57.7319 201.681C46.7258 204.518 35.7934 196.903 35.2068 185.99L34.5682 174.113C34.2037 167.333 29.7048 161.396 23.0918 158.969L11.5072 154.716C0.863622 150.809 -3.31216 138.487 2.90333 129.329L9.66835 119.36C13.5302 113.669 13.5301 106.331 9.66834 100.64L2.90332 90.6714C-3.31217 81.5125 0.863636 69.1908 11.5072 65.2837L23.0918 61.0312C29.7048 58.6037 34.2037 52.6668 34.5682 45.8867L35.2068 34.0095C35.7934 23.097 46.7258 15.4818 57.732 18.319L69.7112 21.407C76.5495 23.1698 83.8289 20.9022 88.2805 15.6224L96.0787 6.3733Z" fill="var(--fill-0, #FFFCF9)"/>
</svg>
